<?xml version="1.0" encoding="UTF-8" standalone="no"?>
<!-- Created with Inkscape (http://www.inkscape.org/) -->

<svg
   xmlns:dc="http://purl.org/dc/elements/1.1/"
   xmlns:cc="http://creativecommons.org/ns#"
   xmlns:rdf="http://www.w3.org/1999/02/22-rdf-syntax-ns#"
   xmlns:svg="http://www.w3.org/2000/svg"
   xmlns="http://www.w3.org/2000/svg"
   xmlns:sodipodi="http://sodipodi.sourceforge.net/DTD/sodipodi-0.dtd"
   xmlns:inkscape="http://www.inkscape.org/namespaces/inkscape"
   version="1.1"
   id="svg80"
   width="225"
   height="224"
   viewBox="0 0 225 224"
   sodipodi:docname="search-logo.svg"
   inkscape:version="0.92.4 (5da689c313, 2019-01-14)">
  <metadata
     id="metadata86">
    <rdf:RDF>
      <cc:Work
         rdf:about="">
        <dc:format>image/svg+xml</dc:format>
        <dc:type
           rdf:resource="http://purl.org/dc/dcmitype/StillImage" />
        <dc:title></dc:title>
      </cc:Work>
    </rdf:RDF>
  </metadata>
  <defs
     id="defs84" />
  <sodipodi:namedview
     pagecolor="#ffffff"
     bordercolor="#666666"
     borderopacity="1"
     objecttolerance="10"
     gridtolerance="10"
     guidetolerance="10"
     inkscape:pageopacity="0"
     inkscape:pageshadow="2"
     inkscape:window-width="1366"
     inkscape:window-height="714"
     id="namedview82"
     showgrid="false"
     inkscape:pagecheckerboard="false"
     inkscape:zoom="1.7109459"
     inkscape:cx="90.242332"
     inkscape:cy="74.277653"
     inkscape:window-x="0"
     inkscape:window-y="25"
     inkscape:window-maximized="1"
     inkscape:current-layer="svg80" />
  <g
     id="g124"
     inkscape:export-xdpi="95.7892"
     inkscape:export-ydpi="95.7892">
    <path
       sodipodi:nodetypes="csscc"
       inkscape:connector-curvature="0"
       id="path90"
       d="M 86.376384,1.2398524 C 141.34399,1.4460871 171.15982,43.423134 171.9262,80.590406 172.77694,121.84933 149.19065,170.81729 89.269373,171.30628 35.28234,171.74684 1.8483127,128.28418 2.0664207,92.162362 -5.0113541,33.712362 50.288798,-0.41781517 86.376384,1.2398524 Z"
       style="fill:none;stroke:#666666;stroke-width:1px;stroke-linecap:butt;stroke-linejoin:miter;stroke-opacity:1" />
    <path
       sodipodi:nodetypes="ccccc"
       inkscape:connector-curvature="0"
       id="path92"
       d="M 34.715868,88.029521 C 36.960037,60.599604 57.235044,33.910327 87.202952,35.129151 125.32955,36.685593 136.67958,62.816641 138.45018,89.269373 134.7734,132.30236 105.45559,138.18509 86.376384,139.27675 68.389111,139.87591 36.180083,125.90544 34.715868,88.029521 Z"
       style="fill:none;stroke:#666666;stroke-width:1px;stroke-linecap:butt;stroke-linejoin:miter;stroke-opacity:1" />
    <path
       sodipodi:nodetypes="ccscccc"
       inkscape:connector-curvature="0"
       id="path94"
       d="m 131.83764,161.18081 c 0,0 54.5535,54.55351 61.57933,58.27306 7.06564,3.78212 15.80108,6.07099 25.21034,-2.4797 7.80681,-7.09446 6.79105,-19.4415 3.91041,-22.78225 l -62.5385,-61.95403 c 0,0 -8.62097,12.1278 -11.98168,15.19627 -3.36071,3.06848 -16.1799,13.74665 -16.1799,13.74665 z"
       style="fill:none;stroke:#666666;stroke-width:1px;stroke-linecap:butt;stroke-linejoin:miter;stroke-opacity:1" />
    <path
       inkscape:connector-curvature="0"
       id="path96"
       d="m 201.35046,221.74873 c -5.09094,-1.03599 -9.38781,-3.78032 -17.52726,-11.19434 -7.9579,-7.24865 -37.90312,-36.13744 -46.38681,-44.75035 l -4.59016,-4.66007 4.77223,-3.63279 c 7.4418,-5.66496 11.99071,-10.21993 17.40423,-17.4274 l 4.99577,-6.65129 4.15467,3.98677 c 2.28506,2.19273 16.44391,16.21226 31.46411,31.15451 l 27.30944,27.16773 0.65933,3.17594 c 1.75268,8.44262 -2.71122,17.19067 -10.75032,21.06776 -4.12054,1.98726 -7.7055,2.53676 -11.50523,1.76353 z"
       style="opacity:1;fill:#666666;fill-opacity:1;fill-rule:evenodd;stroke:none;stroke-width:7.55905485;stroke-miterlimit:4;stroke-dasharray:none;stroke-opacity:1;paint-order:fill markers stroke" />
    <path
       inkscape:connector-curvature="0"
       id="path98"
       d="M 72.182146,169.20498 C 60.301993,167.03443 49.658475,162.76093 39.274716,155.99224 32.198915,151.37985 20.812025,140.24098 16.475361,133.68947 10.340624,124.42158 6.0447157,114.55018 4.1461639,105.35871 2.9092714,99.370528 1.8406405,82.806129 2.3060155,76.835344 3.7644261,58.123853 11.441549,41.707518 25.129003,28.03193 38.162968,15.009264 55.710591,5.7878844 73.046458,2.8510256 80.876746,1.5245012 96.703571,1.9817323 105.20482,3.7800687 139.17835,10.96676 164.15101,36.230971 170.08316,69.41584 c 1.41334,7.906311 0.96379,25.485915 -0.86939,33.99711 -3.54401,16.45443 -10.19358,30.48909 -19.37675,40.89684 -1.40262,1.58966 -5.52602,5.43141 -9.16312,8.53722 -9.58026,8.18083 -17.92681,12.28382 -31.67002,15.56832 -5.29399,1.26522 -7.82289,1.49719 -18.410865,1.68879 -10.259442,0.18564 -13.281151,0.0381 -18.410869,-0.89914 z M 94.901544,139.05 c 7.261376,-1.06178 16.160456,-3.93419 20.907936,-6.74858 4.57727,-2.71349 11.28762,-9.15191 14.20443,-13.6288 4.9949,-7.66646 8.91181,-20.869879 8.85693,-29.855599 -0.0512,-8.381083 -2.70015,-19.531769 -6.52583,-27.470185 -4.68748,-9.726699 -11.2198,-16.37432 -20.711,-21.076582 -11.644087,-5.768872 -27.705168,-7.410763 -39.357255,-4.023409 -8.705273,2.53069 -18.099306,9.002521 -24.348549,16.774439 -4.550521,5.65929 -9.524741,15.339169 -11.786862,22.937352 -2.147009,7.211532 -2.266942,17.455743 -0.290356,24.801004 4.032774,14.98632 13.332517,26.48548 26.976988,33.35711 10.720111,5.39887 19.574903,6.76083 32.073568,4.93325 z"
       style="opacity:1;fill:#666666;fill-opacity:1;fill-rule:evenodd;stroke:none;stroke-width:7.55905485;stroke-miterlimit:4;stroke-dasharray:none;stroke-opacity:1;paint-order:fill markers stroke" />
  </g>
</svg>
